<?xml version="1.0" encoding="utf-8"?>
<!-- Generator: Adobe Illustrator 16.0.0, SVG Export Plug-In . SVG Version: 6.00 Build 0)  -->
<!DOCTYPE svg PUBLIC "-//W3C//DTD SVG 1.1//EN" "http://www.w3.org/Graphics/SVG/1.1/DTD/svg11.dtd">
<svg version="1.1" xmlns="http://www.w3.org/2000/svg" xmlns:xlink="http://www.w3.org/1999/xlink" x="0px" y="0px"
	 width="566.93px" height="566.929px" viewBox="0 0 566.93 566.929" enable-background="new 0 0 566.93 566.929"
	 xml:space="preserve">
<g id="Calque_1" display="none">
</g>
<g id="Calque_2" display="none">
</g>
<g id="Calque_3" display="none">
</g>
<g id="Calque_4">
	<g>
		<path fill="#16C3F4" d="M548.913,118.063c-0.02-0.189-0.037-0.379-0.075-0.568c-0.096-0.438-0.209-0.855-0.38-1.271
			c-0.057-0.115-0.096-0.211-0.133-0.322c-0.343-0.703-0.778-1.33-1.329-1.861c-0.286-0.287-0.607-0.551-0.967-0.799
			c-0.362-0.246-0.762-0.455-1.178-0.645c-0.191-0.076-0.399-0.152-0.59-0.209L293.271,24.584c-1.366-0.475-2.848-0.494-4.214-0.057
			L100.6,84.993c-0.19,0.037-0.361,0.094-0.533,0.152c-0.076,0.018-0.132,0.055-0.169,0.055l-78.882,25.309l-0.265,0.096
			c-0.664,0.207-1.273,0.529-1.822,0.91c-0.229,0.152-0.418,0.322-0.626,0.514c-0.172,0.15-0.343,0.322-0.495,0.492
			c-0.039,0.037-0.075,0.096-0.114,0.152c-0.15,0.17-0.285,0.359-0.417,0.529c-0.284,0.439-0.533,0.914-0.722,1.406
			c-0.133,0.381-0.246,0.777-0.321,1.195v0.098c-0.037,0.227-0.059,0.453-0.059,0.682c-0.018,0.115-0.037,0.229-0.037,0.342v342.344
			c0,2.887,1.841,5.43,4.576,6.322l258.813,84.803c0.018,0,0.018,0,0.037,0c0.075,0.039,0.151,0.057,0.21,0.057
			c0.228,0.076,0.453,0.135,0.681,0.172c0.38,0.057,0.762,0.094,1.141,0.094c0.207,0,0.399,0,0.605-0.02
			c0.152-0.018,0.306-0.035,0.458-0.074c0.151-0.02,0.321-0.037,0.473-0.096c0.171-0.037,0.343-0.076,0.494-0.133
			c0.039,0,0.057,0,0.096-0.018l260.713-87.975c2.696-0.912,4.518-3.434,4.518-6.303V118.727
			C548.952,118.499,548.931,118.292,548.913,118.063z M274.951,534.903l-86.171-28.229L84.994,331.411v141.262l-55.568-18.207
			V126.266l48.923,16.951v133.801c0,2.734,1.67,5.201,4.216,6.191c2.544,0.984,5.446,0.34,7.309-1.672l94.181-101.699l73.356,25.42
			L146.808,318.157l128.144,214.771V534.903z M172.512,172.719l1.613-1.727C173.689,171.676,173.158,172.264,172.512,172.719z
			 M170.404,161.063c-0.037-0.02-0.076-0.02-0.113-0.037l-25.498-8.83c0-0.018-0.018-0.018-0.018-0.018
			c-0.02-0.02-0.059-0.02-0.076-0.037c-54.505-21.281-58.566-35.443-58.51-39.279c0.114-6.854,11.487-12.738,17.599-14.941
			c0.171-0.057,0.304-0.096,0.417-0.131c0.02,0,0.059-0.021,0.076-0.021l186.712-59.912l57.256,20.027L217.05,101.737
			c0,0-68.989,14.639-13.935,36.754c55.054,22.098,100.617,5.012,100.617,5.012l152.766-47.746l65.345,22.857l-93.916,31.666
			c-0.076,0.018-0.151,0.039-0.228,0.076l-16.099,5.43c-0.458,0.152-0.382,0.055-0.646,0.229c-0.018,0.018-0.018,0.018-0.037,0.018
			c-0.151,0.059-0.323,0.113-0.531,0.189c-1.481,0.551-4.52,1.615-8.753,2.943c-0.323,0.113-0.664,0.209-1.004,0.322
			c-0.059,0.02-0.115,0.037-0.152,0.057c-0.059,0.02-0.115,0.039-0.173,0.039C365.297,170.422,272.901,192.198,170.404,161.063z
			 M533.992,384.686c-1.66,53.598-36.45,78.867-66.084,89.486c-0.037,0.018-0.059,0.037-0.076,0.037l-37.361,12.605l-142.229,47.992
			V211.391l116.031-39.109c0.056-0.018,0.112-0.037,0.171-0.055c0.037-0.021,0.096-0.039,0.152-0.059
			c0.037-0.018,0.075-0.018,0.112-0.039l9.511-3.17c0.114-0.037,0.229-0.076,0.322-0.113c0.115-0.039,0.211-0.074,0.304-0.113
			c0.096-0.037,0.192-0.057,0.267-0.096c0.209-0.076,0.36-0.131,0.476-0.17c0.379-0.113,0.646-0.229,0.815-0.305l15.415-5.182
			c0.076-0.021,0.172-0.059,0.267-0.076c0,0,20.867-8.305,28.211-9.51c0.018-0.004,0.037,0,0.037,0
			c21.853,1.498,47.576,12.869,48.431,57.805c1.271,65.818-46.816,89.227-46.816,89.227s71.987,7.428,71.987,61.771
			C533.934,381.506,534.697,362.03,533.992,384.686z"/>
		<path fill="#16C3F4" d="M443.802,248.629c-3.108,49.447-78.676,58.764-78.676,58.764v-72.139
			C365.126,235.254,446.73,202.036,443.802,248.629z"/>
		<path fill="#16C3F4" d="M471.061,387.043c0.057,13.689-7.1,25.176-17.352,34.574v0.018
			c-25.782,23.691-88.583,33.836-88.583,33.836v-82.885c0,0,69.825-25.902,93.994-11.283v0.018
			C466.313,365.649,471.003,373.641,471.061,387.043z"/>
	</g>
</g>
</svg>
